<?xml version="1.0" encoding="iso-8859-1"?>
<!-- Generator: Adobe Illustrator 17.1.0, SVG Export Plug-In . SVG Version: 6.00 Build 0)  -->
<!DOCTYPE svg PUBLIC "-//W3C//DTD SVG 1.1//EN" "http://www.w3.org/Graphics/SVG/1.1/DTD/svg11.dtd">
<svg version="1.1" id="Capa_1" xmlns="http://www.w3.org/2000/svg" xmlns:xlink="http://www.w3.org/1999/xlink" x="0px" y="0px"
	 viewBox="0 0 360.714 360.714" style="enable-background:new 0 0 360.714 360.714;" xml:space="preserve">
<g>
	<path d="M115.65,172.904c-12.063-13.533-29.373-21.294-47.49-21.294c-16.112,0-30.834,6.034-42.052,15.946
		C45.572,99.122,107.388,48.968,180.44,48.968h0.567c4.143,0,7.5-3.358,7.5-7.5V7.5c0-4.142-3.357-7.5-7.5-7.5s-7.5,3.358-7.5,7.5
		v26.606C80.835,37.801,6.365,115.173,4.765,210.354c-0.122,1.604-0.204,3.219-0.204,4.854c0,4.142,3.357,7.5,7.5,7.5
		s7.5-3.358,7.5-7.5c0-0.062,0.004-0.122,0.005-0.184c0.105-0.499,0.161-1.016,0.161-1.547c0-0.843,0.019-1.682,0.031-2.522
		c2.163-24.811,23.038-44.345,48.401-44.345c13.845,0,27.073,5.932,36.293,16.276c2.756,3.092,7.497,3.364,10.589,0.608
		C118.134,180.737,118.406,175.997,115.65,172.904z"/>
	<path d="M356.153,213.478c0-38.75-11.895-75.646-34.397-106.702c-22.08-30.473-52.334-52.682-87.492-64.228
		c-3.939-1.293-8.174,0.851-9.466,4.786s0.851,8.173,4.786,9.465c32.138,10.554,59.811,30.879,80.026,58.778
		c11.552,15.943,20.054,33.572,25.301,52.242c-11.256-10.071-26.1-16.209-42.357-16.209c-24.255,0-45.376,13.653-56.099,33.674
		c-10.723-20.021-31.843-33.674-56.099-33.674c-35.068,0-63.599,28.53-63.599,63.598c0,4.142,3.357,7.5,7.5,7.5s7.5-3.358,7.5-7.5
		c0-26.797,21.801-48.598,48.599-48.598s48.599,21.801,48.599,48.598c0,4.142,3.357,7.5,7.5,7.5s7.5-3.358,7.5-7.5
		c0-26.797,21.801-48.598,48.599-48.598s48.599,21.801,48.599,48.598c0,4.142,3.357,7.5,7.5,7.5s7.5-3.358,7.5-7.5
		c0-0.386-0.022-0.767-0.029-1.152C356.138,213.865,356.153,213.673,356.153,213.478z"/>
	<path d="M236.045,317.665c-4.143,0-7.5,3.358-7.5,7.5c0,11.331-9.219,20.549-20.55,20.549s-20.549-9.218-20.549-20.549V187.159
		c0-4.142-3.357-7.5-7.5-7.5s-7.5,3.358-7.5,7.5v138.006c0,19.602,15.947,35.549,35.549,35.549c19.603,0,35.55-15.947,35.55-35.549
		C243.545,321.023,240.188,317.665,236.045,317.665z"/>
</g>
<g>
</g>
<g>
</g>
<g>
</g>
<g>
</g>
<g>
</g>
<g>
</g>
<g>
</g>
<g>
</g>
<g>
</g>
<g>
</g>
<g>
</g>
<g>
</g>
<g>
</g>
<g>
</g>
<g>
</g>
</svg>
