<?xml version="1.0" encoding="iso-8859-1"?>
<!-- Generator: Adobe Illustrator 17.1.0, SVG Export Plug-In . SVG Version: 6.00 Build 0)  -->
<!DOCTYPE svg PUBLIC "-//W3C//DTD SVG 1.1//EN" "http://www.w3.org/Graphics/SVG/1.1/DTD/svg11.dtd">
<svg version="1.1" id="Capa_1" xmlns="http://www.w3.org/2000/svg" xmlns:xlink="http://www.w3.org/1999/xlink" x="0px" y="0px"
	 viewBox="0 0 316.696 316.696" style="enable-background:new 0 0 316.696 316.696;" xml:space="preserve">
<g>
	<path d="M51.205,49.4c13.62,0,24.7-11.081,24.7-24.7S64.825,0,51.205,0s-24.7,11.081-24.7,24.7S37.585,49.4,51.205,49.4z
		 M51.205,15c5.349,0,9.7,4.352,9.7,9.7s-4.352,9.7-9.7,9.7s-9.7-4.352-9.7-9.7S45.856,15,51.205,15z"/>
	<path d="M296.837,162.414c-0.104-2.411-1.36-4.625-3.378-5.949L147.55,60.685c-1.274-1.086-2.603-1.865-3.896-2.415
		c-0.034-0.015-0.071-0.028-0.105-0.042c-0.041-0.017-0.082-0.033-0.123-0.049c-6.075-2.473-16.157-2.014-30.018,13.738
		c-7.892,8.97-15.666,21.38-22.262,35.446L58.705,93.558V68.951c0-4.142-3.357-7.5-7.5-7.5s-7.5,3.358-7.5,7.5v232.746H27.333
		c-4.143,0-7.5,3.358-7.5,7.5s3.357,7.5,7.5,7.5h47.745c4.143,0,7.5-3.358,7.5-7.5s-3.357-7.5-7.5-7.5H58.705V109.859l26.57,11.307
		c-11.593,30.275-15.988,63.421,0.191,71.474c0.248,0.144,0.508,0.27,0.775,0.386c0.019,0.008,0.036,0.019,0.055,0.027
		c0.069,0.029,0.139,0.049,0.208,0.076c0.141,0.055,0.282,0.11,0.427,0.157c0.128,0.042,0.257,0.074,0.386,0.109
		c0.084,0.022,0.164,0.051,0.25,0.07l173.354,39.458c0.553,0.125,1.11,0.187,1.665,0.187c1.809,0,3.579-0.655,4.964-1.877
		C298.259,204.123,296.909,164.104,296.837,162.414z M260.373,217.415l-90.208-20.533c7.961-10.054,15.729-23.489,22.053-38.348
		c3.474-8.165,6.347-16.335,8.539-24.283c1.101-3.993-1.243-8.123-5.236-9.224c-3.996-1.103-8.122,1.243-9.225,5.236
		c-2.016,7.309-4.667,14.845-7.881,22.398c-7.165,16.837-16.15,31.457-24.812,40.452l-61.628-14.028
		c-2.86-2.696-5.068-23.813,9.905-58.995c14.992-35.232,31.747-48.276,35.626-48.054l0.683,0.448
		c2.744,3.537,4.47,24.462-10.121,58.75c-4.104,9.643-8.948,18.828-14.011,26.564c-2.269,3.466-1.297,8.115,2.169,10.383
		c3.464,2.266,8.114,1.297,10.382-2.169c5.54-8.465,10.817-18.46,15.263-28.905c7.181-16.874,11.769-33.771,12.919-47.58
		c0.177-2.125,0.263-4.107,0.276-5.966l81.181,53.29c-1.601,9.616-5.18,21.395-10.938,35.977c-1.489,3.771-3.035,7.375-4.594,10.712
		c-1.752,3.753-0.131,8.216,3.622,9.969c1.026,0.479,2.106,0.707,3.169,0.707c2.823,0,5.527-1.602,6.801-4.329
		c1.687-3.611,3.353-7.496,4.953-11.549c4.962-12.565,8.428-23.309,10.519-32.603l32.006,21.01
		C281.337,175.777,278.389,199.556,260.373,217.415z"/>
</g>
<g>
</g>
<g>
</g>
<g>
</g>
<g>
</g>
<g>
</g>
<g>
</g>
<g>
</g>
<g>
</g>
<g>
</g>
<g>
</g>
<g>
</g>
<g>
</g>
<g>
</g>
<g>
</g>
<g>
</g>
</svg>
